<?xml version="1.0" encoding="UTF-8"?>
<svg width="50px" height="88px" viewBox="0 0 50 88" version="1.1" xmlns="http://www.w3.org/2000/svg" xmlns:xlink="http://www.w3.org/1999/xlink">
    <!-- Generator: sketchtool 61 (101010) - https://sketch.com -->
    <title>87B1F849-D57D-4B90-862B-2934B2C3FFF4</title>
    <desc>Created with sketchtool.</desc>
    <g id="Asset-Artboard-Page" stroke="none" stroke-width="1" fill="none" fill-rule="evenodd">
        <g id="icon/shuttle">
            <path d="M12.5,80.1428571 L12.5,18.8571429 C12.5,9.42857143 18.75,0 25,0 L25.1874938,0.00281914286 C31.3125062,0.186713906 37.3774814,9.33708628 37.4981684,18.5771234 L37.5,18.8571429 L37.5,80.1428571 L12.5,80.1428571 Z" id="Path" fill="#FF9D00"></path>
            <path d="M12.5,84.8571429 L6.25,84.8571429 L6.25,28.2857143 C6.25,26.7142857 7.8125,18.8571429 9.375,18.8571429 L9.42187344,18.8594859 C10.9376593,19.0105737 12.4387376,26.4243712 12.4981744,28.1850885 L12.5,28.2857143 L12.5,84.8571429 Z" id="Path" fill="#FFC800"></path>
            <path d="M43.75,84.8571429 L37.5,84.8571429 L37.5,28.2857143 C37.5,26.7142857 39.0625,18.8571429 40.625,18.8571429 L40.6718734,18.8594859 C42.1876593,19.0105737 43.6887376,26.4243712 43.7481744,28.1850885 L43.75,28.2857143 L43.75,84.8571429 Z" id="Path" fill="#FFC800"></path>
            <path d="M17.1875,75.4285714 L17.1875,78.5582286 L3.125,77.2728 L3.125,75.4285714 L17.1875,75.4285714 Z M46.8743751,75.4285714 L46.8752944,75.4717311 L46.8752944,77.2728 L32.8125,78.5582286 L32.8125,75.4285714 L46.8743751,75.4285714 Z M25,64.4285714 C27.5888348,64.4285714 29.6875,66.539229 29.6875,69.1428571 L29.6875,69.1428571 L29.6875,77 L26.5625,77 L26.5625,70.7142857 L26.5610564,70.6461204 C26.5255682,69.8098678 25.8402358,69.1428571 25,69.1428571 C24.1597642,69.1428571 23.4744318,69.8098678 23.4389436,70.6461204 L23.4389436,70.6461204 L23.4375,70.7142857 L23.4375,77 L20.3125,77 L20.3125,69.1428571 L20.3135055,69.0442254 C20.3657093,66.4861329 22.4439353,64.4285714 25,64.4285714 Z M14.4151017,57.8554197 L17.1875003,59.7142864 L17.1875003,72.2857151 L3.60378534,72.2859325 C3.96743732,71.1013021 4.53947086,69.9095875 5.3240772,68.6661716 C6.33960373,67.0568018 7.39636699,65.7307639 9.54123801,63.3368161 L9.54123801,63.3368161 L10.2044446,62.6006472 L11.3597317,61.3297298 C12.4781677,60.0976857 13.3679998,59.0966548 14.1165409,58.2114021 L14.1165409,58.2114021 L14.4151017,57.8554197 Z M35.5847979,57.8552974 C36.1955294,58.5897784 36.9015569,59.3979583 37.7580741,60.3526812 L37.7580741,60.3526812 L38.3519859,61.0116726 L40.0509535,62.8831866 C42.1521402,65.212098 43.2584822,66.5446332 44.2298727,67.983586 L44.2298727,67.983586 L44.4184439,68.266784 L44.5909606,68.5326165 L44.7086265,68.7181664 C45.4770585,69.9438232 46.0378832,71.1186933 46.3961589,72.2858414 L46.3961589,72.2858414 L32.8125,72.2858414 L32.8125,59.7142851 Z M25.0000001,25.1428571 C27.1737588,25.1428571 29.0019282,26.1349231 29.5324478,27.4808189 C29.6193614,27.7623383 29.671611,28.0103744 29.6845442,28.2098571 L29.6845442,28.2098571 L29.6865627,28.2577429 L29.6877521,28.3256247 L29.687632,62.8566681 C28.3818898,61.8702394 26.7588186,61.2857153 25.0000001,61.2857153 C23.241296,61.2857153 21.6183214,61.8701634 20.3126228,62.8566681 L20.3126228,62.8566681 L20.3125,28.2857144 L20.3137001,28.2307027 C20.3219357,28.036241 20.3723971,27.7872668 20.4599245,27.5006575 C20.9799461,26.1447882 22.8154601,25.1428571 25.0000001,25.1428571 Z M25,37.7142857 C22.4111652,37.7142857 20.3125,39.8249433 20.3125,42.4285714 L20.3125,42.4285714 L23.4375,42.4285714 C23.4375,41.5606954 24.1370551,40.8571429 25,40.8571429 C25.8629449,40.8571429 26.5625,41.5606954 26.5625,42.4285714 L26.5625,42.4285714 L29.6875,42.4285714 L29.6864945,42.3299397 C29.6342907,39.7718471 27.5560647,37.7142857 25,37.7142857 Z" id="Combined-Shape" fill="#FFFFFF"></path>
            <path d="M25,18.8571429 L25.1125894,18.8590191 C28.7936612,18.9813076 32.7328932,25.0510577 32.8113097,28.1914565 L32.8125,28.2857143 L32.8125,44 C32.8125,56.4457143 49.6579688,62.7308 49.9948781,75.0533244 L50,75.4285948 L50,80.1428571 L32.8125,81.7142857 L29.6875,84.8571429 L26.5625,84.8571429 L26.5625,88 L23.4375,88 L23.4375,84.8571429 L20.3125,84.8571429 L17.1875,81.7142857 L0,80.1428571 L0,75.4285948 C0,62.8571429 17.1875,56.5714286 17.1875,44 L17.1875,28.2857143 C17.1875,25.1428571 21.25,18.8571429 25,18.8571429 Z M17.1875,75.4285714 L3.125,75.4285714 L3.125,77.2728 L17.1875,78.5582286 L17.1875,75.4285714 Z M46.8743751,75.4285714 L32.8125,75.4285714 L32.8125,78.5582286 L46.8752944,77.2728 L46.8752944,75.4717311 L46.8743751,75.4285714 Z M25,64.4285714 C22.4439353,64.4285714 20.3657093,66.4861329 20.3135055,69.0442254 L20.3125,69.1428571 L20.3125,77 L23.4375,77 L23.4375,70.7142857 L23.4389436,70.6461204 C23.4744318,69.8098678 24.1597642,69.1428571 25,69.1428571 C25.8402358,69.1428571 26.5255682,69.8098678 26.5610564,70.6461204 L26.5625,70.7142857 L26.5625,77 L29.6875,77 L29.6875,69.1428571 C29.6875,66.539229 27.5888348,64.4285714 25,64.4285714 Z M35.5847979,57.8552974 L32.8125,59.7142851 L32.8125,72.2858414 L46.3961589,72.2858414 C46.0378832,71.1186933 45.4770585,69.9438232 44.7086265,68.7181664 L44.5909606,68.5326165 L44.4184439,68.266784 L44.2298727,67.983586 C43.2584822,66.5446332 42.1521402,65.212098 40.0509535,62.8831866 L38.3519859,61.0116726 L37.7580741,60.3526812 C36.9015569,59.3979583 36.1955294,58.5897784 35.5847979,57.8552974 Z M17.1875003,59.7142864 L14.4151017,57.8554197 L14.1165409,58.2114021 C13.3679998,59.0966548 12.4781677,60.0976857 11.3597317,61.3297298 L10.2044446,62.6006472 L9.54123801,63.3368161 C7.39636699,65.7307639 6.33960373,67.0568018 5.3240772,68.6661716 C4.53947086,69.9095875 3.96743732,71.1013021 3.60378534,72.2859325 L17.1875003,72.2857151 L17.1875003,59.7142864 Z M25.0000001,25.1428571 C22.8154601,25.1428571 20.9799461,26.1447882 20.4599245,27.5006575 C20.3723971,27.7872668 20.3219357,28.036241 20.3137001,28.2307027 L20.3125,28.2857144 L20.3126228,62.8566681 C21.6183214,61.8701634 23.241296,61.2857153 25.0000001,61.2857153 C26.7588186,61.2857153 28.3818898,61.8702394 29.687632,62.8566681 L29.6877521,28.3256247 L29.6865627,28.2577429 L29.6845442,28.2098571 C29.671611,28.0103744 29.6193614,27.7623383 29.5324478,27.4808189 C29.0019282,26.1349231 27.1737588,25.1428571 25.0000001,25.1428571 Z M25,37.7142857 C27.5560647,37.7142857 29.6342907,39.7718471 29.6864945,42.3299397 L29.6875,42.4285714 L26.5625,42.4285714 C26.5625,41.5606954 25.8629449,40.8571429 25,40.8571429 C24.1370551,40.8571429 23.4375,41.5606954 23.4375,42.4285714 L20.3125,42.4285714 C20.3125,39.8249433 22.4111652,37.7142857 25,37.7142857 Z" id="Shape" fill="#000000" fill-rule="nonzero"></path>
        </g>
    </g>
</svg>