<svg height="58" viewBox="0 0 61 58" width="61" xmlns="http://www.w3.org/2000/svg"><path d="m20.4309792 18.2251244-17.72068974 1.6508444-.19246102.0237761c-2.46355869.3806575-3.41654998 3.5165935-1.50001798 5.207454l13.37119804 11.7946056-3.9138895 17.4366918-.0354759.18212c-.4088145 2.4751093 2.2702802 4.3605894 4.4664435 3.050958l15.3022467-9.1257537 15.3022468 9.1257537.1615049.0901623c2.2175967 1.1553223 4.8310312-.8209186 4.2694626-3.3232403l-3.9126967-17.4366918 13.3700053-11.7946056.1417886-.1328456c1.7702705-1.7622054.7058626-4.8617849-1.8342676-5.0983845l-17.7194971-1.6508444-7.0400582-16.41509089c-1.034875-2.41337801-4.4421021-2.41337801-5.4769771 0zm9.7773541-7.6608764 5.0008027 11.6629189.0930633.1970186c.4651972.8989297 1.3558317 1.5057476 2.370069 1.6002184l12.5904942 1.1716869-9.4998281 8.3811554-.1578185.1497698c-.7075321.7221087-1.0069671 1.7602983-.7830144 2.7582208l2.7802626 12.3857888-10.8717313-6.4818076-.2044273-.1113459c-.8996205-.4453839-1.9688133-.4082686-2.8401716.1113459l-10.8705387 6.4818076 2.7790699-12.3857888.0400209-.214327c.1497713-1.0018569-.2156101-2.0185274-.9808537-2.6936636l-9.4986354-8.3811554 12.5893015-1.1716869c1.0866828-.1012187 2.0314747-.790591 2.4631322-1.797237z" fill="#252b4d"/></svg>