<svg height="58" viewBox="0 0 61 58" width="61" xmlns="http://www.w3.org/2000/svg"><path d="m27.4698448 1.81003351c1.0053071-2.34442436 4.24934-2.41140791 5.3825743-.20095066l.0944028.20095066 7.0400582 16.41509089 17.7194971 1.6508444c2.4732847.2303733 3.5474946 3.175026 1.9681614 4.9565611l-.1338938.1418234-.1417886.1328456-13.3700053 11.7946056 3.9126967 17.4366918c.5475293 2.4397637-1.9231786 4.3794217-4.1024565 3.4040585l-.1670061-.0808182-.1615049-.0901623-15.3022468-9.1257537-15.3022467 9.1257537c-2.1412592 1.2768906-4.7416051-.4835716-4.4913705-2.866471l.024927-.184487.0354759-.18212 3.9138895-17.4366918-13.37119804-11.7946056c-1.86609694-1.6463642-1.01171094-4.662748 1.30868957-5.1717544l.19132841-.0356996.19246102-.0237761 17.72068974-1.6508444z" fill="#252b4d"/></svg>