<svg width="97" height="25" xmlns="http://www.w3.org/2000/svg"><defs><filter id="a"><feColorMatrix in="SourceGraphic" values="0 0 0 0 1.000000 0 0 0 0 1.000000 0 0 0 0 1.000000 0 0 0 1.000000 0"/></filter></defs><g filter="url(#a)" fill="none" fill-rule="evenodd"><g fill-rule="nonzero"><path fill="#292931" d="M60.247 7l-2.398 2.315v10.712h2.493V7zM63.822 10.205a1.507 1.507 0 01-1.082-.438 1.534 1.534 0 01-.439-1.082c.002-.404.16-.791.439-1.082a1.52 1.52 0 011.082-.452c.85 0 1.54.684 1.548 1.534a1.548 1.548 0 01-1.548 1.52M53.904 13.027h-4.246v-2.424H51.3V8h2.603v2.603h2.164v2.424h-2.164v3.809c-.027.289.056.577.233.808.212.166.47.262.74.274h1.191v2.287a5.48 5.48 0 01-3.67-.534 3.178 3.178 0 01-1.083-2.74v-1.37l2.59-2.534zM38.575 18.808a5.205 5.205 0 01-7.246 0 4.973 4.973 0 01-1.466-3.616 5.11 5.11 0 015.123-5.096 5.164 5.164 0 013.59 1.48 4.877 4.877 0 011.492 3.602 4.932 4.932 0 01-1.479 3.617m-5.48-1.74a2.63 2.63 0 004.494-1.904 2.575 2.575 0 00-.754-1.918 2.74 2.74 0 00-3.74 0 2.616 2.616 0 00-.725 1.918 2.603 2.603 0 00.726 1.904M43.836 13.192c0 .26.164.466.506.644a9.48 9.48 0 001.247.41c.499.123.988.278 1.466.466.492.186.92.51 1.233.932.36.465.544 1.042.52 1.63a2.74 2.74 0 01-1.11 2.301 4.616 4.616 0 01-2.74.699 4.014 4.014 0 01-4.109-2.206L43 16.85a1.808 1.808 0 001.89 1.26c.89 0 1.37-.273 1.37-.835 0-.247-.164-.452-.52-.616a5.753 5.753 0 00-1.233-.439c-.484-.152-.96-.33-1.425-.534a3.15 3.15 0 01-1.246-.904 2.562 2.562 0 01-.507-1.59 2.74 2.74 0 011.04-2.232A4.205 4.205 0 0145 10.205a4.342 4.342 0 012.137.535 3.699 3.699 0 011.52 1.52l-2.082 1.137a1.562 1.562 0 00-1.534-.986 1.37 1.37 0 00-.808.22.658.658 0 00-.315.574M77.192 10.48h-2.425v1.095a3.589 3.589 0 00-3.082-1.37 4.507 4.507 0 00-3.411 1.37 4.877 4.877 0 00-1.37 3.493 4.932 4.932 0 001.37 3.507 4.671 4.671 0 003.466 1.37 3.616 3.616 0 003.055-1.37v1.041a2.288 2.288 0 01-.672 1.754 3.274 3.274 0 01-4.41-.726l-2.042 1.274a4.11 4.11 0 001.767 1.685 6.11 6.11 0 002.74.602 5.48 5.48 0 003.507-1.219 4.11 4.11 0 001.507-3.397v-9.11zm-5.124 7.246a2.74 2.74 0 01-1.945-.671 2.548 2.548 0 01-.753-1.904 2.466 2.466 0 01.753-1.877 2.74 2.74 0 011.945-.753 2.74 2.74 0 011.905.684c.513.487.792 1.17.767 1.877a2.562 2.562 0 01-.767 1.973 2.74 2.74 0 01-1.932.74M84.808 10.205c.98-.04 1.928.345 2.603 1.055a3.973 3.973 0 011.041 2.932v5.918H85.96v-5.63a1.904 1.904 0 00-.52-1.466 1.836 1.836 0 00-1.37-.52 2 2 0 00-1.535.602 2.205 2.205 0 00-.507 1.712v5.22h-2.575V8h2.534v3.493a3.041 3.041 0 012.74-1.37M62.562 11.123h2.548v8.904h-2.548zM28.041 8.671a4.48 4.48 0 00-3.274-1.37h-5.589v12.726h2.74v-3.561h2.931a4.534 4.534 0 003.26-1.37 4.37 4.37 0 001.37-3.233 4.288 4.288 0 00-1.37-3.205m-1.945 4.698a1.836 1.836 0 01-1.37.562h-2.876v-4.11h2.918c.517-.01 1.014.2 1.37.576.366.391.554.917.52 1.452a2.11 2.11 0 01-.52 1.48M93.973 13.027h2.164v-2.424h-2.164V8h-2.535v2.603h-1.657v2.424h1.657v3.946a3.123 3.123 0 001.083 2.74 5.48 5.48 0 003.616.479v-2.329h-1.192a1.288 1.288 0 01-.74-.274 1.15 1.15 0 01-.232-.808v-3.754z"/><path fill="#FF002E" d="M0 7h13.274L0 20z"/></g></g></svg>