<?xml version="1.0" encoding="UTF-8"?>
<svg width="97px" height="25px" viewBox="0 0 97 25" version="1.1" xmlns="http://www.w3.org/2000/svg" xmlns:xlink="http://www.w3.org/1999/xlink">
    <title>PL Labs knockout white </title>
    <defs>
        <filter id="filter-1">
            <feColorMatrix in="SourceGraphic" type="matrix" values="0 0 0 0 1.000000 0 0 0 0 1.000000 0 0 0 0 1.000000 0 0 0 1.000000 0"></feColorMatrix>
        </filter>
    </defs>
    <g id="PL-Labs-knockout-white-" stroke="none" stroke-width="1" fill="none" fill-rule="evenodd">
        <g filter="url(#filter-1)" id="postlight-logo.6bd3851c">
            <g transform="translate(0.000000, 7.000000)">
                <g id="Group" fill-rule="nonzero">
                    <polygon id="Path" fill="#292931" points="60.2465753 0 57.8493151 2.31506849 57.8493151 13.0273973 60.3424658 13.0273973 60.3424658 0"></polygon>
                    <path d="M63.8219178,3.20547945 C63.4169349,3.21073659 63.0268858,3.052742 62.739726,2.76712329 C62.4566906,2.47826394 62.2991506,2.08933703 62.3013467,1.68493151 C62.3034776,1.28136877 62.4603844,0.894005213 62.739726,0.602739726 C63.0254922,0.313402632 63.4152506,0.150592176 63.8219178,0.150684892 C64.6715031,0.150651663 65.3623446,0.835379444 65.369863,1.68493151 C65.3549193,2.52911979 64.6662383,3.20560657 63.8219178,3.20547945" id="Path" fill="#292931"></path>
                    <path d="M53.9041096,6.02739726 L49.6575342,6.02739726 L49.6575342,3.60273973 L51.3013699,3.60273973 L51.3013699,1 L53.9041096,1 L53.9041096,3.60273973 L56.0684932,3.60273973 L56.0684932,6.02739726 L53.9041096,6.02739726 L53.9041096,9.83561644 C53.8769639,10.1247571 53.960152,10.4134688 54.1369863,10.6438356 C54.3488283,10.8102973 54.6075472,10.9061191 54.8767123,10.9178082 L56.0684932,10.9178082 L56.0684932,13.2054795 C54.8198554,13.459689 53.5216585,13.2707723 52.3972603,12.6712329 C51.6095211,11.9903978 51.2052331,10.9668838 51.3150685,9.93150685 L51.3150685,8.56164384 L53.9041096,6.02739726 Z" id="Path" fill="#292931"></path>
                    <path d="M38.5753425,11.8082192 C36.5563273,13.7655436 33.3477823,13.7655436 31.3287671,11.8082192 C30.3678416,10.8528065 29.83844,9.54661932 29.8630137,8.19178082 C29.8666419,6.83663205 30.4084548,5.53842849 31.3692587,4.58276261 C32.3300626,3.62709672 33.6311526,3.09225243 34.9863014,3.09587197 C36.3295242,3.1035242 37.6169218,3.6342072 38.5753425,4.57534247 C39.5524808,5.51631214 40.0935239,6.82176487 40.0684932,8.17808219 C40.0943134,9.53584325 39.5590923,10.8441615 38.5890411,11.7945205 M33.109589,10.0547945 C33.8671542,10.8153534 35.0109039,11.0391958 35.9992921,10.6203362 C36.9876804,10.2014765 37.6223279,9.22398412 37.6027397,8.15068493 C37.6294184,7.43442426 37.3563919,6.73944773 36.8493151,6.23287671 C35.7965546,5.24981039 34.1623495,5.24981039 33.109589,6.23287671 C32.6167117,6.74672824 32.35454,7.43925737 32.3835616,8.15068493 C32.3567118,8.85768585 32.6188391,9.54515182 33.109589,10.0547945" id="Shape" fill="#292931"></path>
                    <path d="M43.8356164,6.19178082 C43.8356164,6.45205479 44,6.65753425 44.3424658,6.83561644 C44.7479965,7.00124052 45.1645198,7.13855591 45.5890411,7.24657534 C46.0875778,7.36856587 46.5772823,7.52417291 47.0547945,7.71232877 C47.546617,7.89810785 47.9746006,8.22147325 48.2876712,8.64383562 C48.6480737,9.10878411 48.8324578,9.68619754 48.8082192,10.2739726 C48.8405739,11.1771524 48.4254331,12.0381851 47.6986301,12.5753425 C46.8809349,13.0890343 45.9227382,13.3333745 44.9589041,13.2739726 C43.2586287,13.4918017 41.6076734,12.605789 40.8493151,11.0684932 L43,9.84931507 C43.2545987,10.6622606 44.0420771,11.1872462 44.890411,11.109589 C45.7808219,11.109589 46.260274,10.8356164 46.260274,10.2739726 C46.260274,10.0273973 46.0958904,9.82191781 45.739726,9.65753425 C45.3467741,9.46500719 44.9331408,9.31793759 44.5068493,9.21917808 C44.0226828,9.06689969 43.547103,8.88855725 43.0821918,8.68493151 C42.5982808,8.4913096 42.169963,8.18066147 41.8356164,7.78082192 C41.4941283,7.32251608 41.3157169,6.76317219 41.3287671,6.19178082 C41.3027048,5.32463511 41.6888825,4.49638566 42.369863,3.95890411 C43.1380953,3.42163367 44.063818,3.15645267 45,3.20547945 C45.7464068,3.19693125 46.4824148,3.38093326 47.1369863,3.73972603 C47.7832423,4.08479698 48.3124633,4.61401795 48.6575342,5.26027397 L46.5753425,6.39726027 C46.3289977,5.77296722 45.7113179,5.37588733 45.0410959,5.4109589 C44.7554157,5.39786302 44.4728001,5.47450455 44.2328767,5.63013699 C44.0328611,5.75209808 43.9128407,5.97126569 43.9178082,6.20547945" id="Path" fill="#292931"></path>
                    <path d="M77.1917808,3.47945205 L74.7671233,3.47945205 L74.7671233,4.57534247 C74.0316478,3.63433125 72.8762584,3.12082484 71.6849315,3.20547945 C70.4049387,3.15662544 69.1646266,3.65474277 68.2739726,4.57534247 C67.3697598,5.51043598 66.8765916,6.76801502 66.9041096,8.06849315 C66.8789924,9.37260393 67.3715502,10.6335519 68.2739726,11.5753425 C69.189173,12.4929686 70.4444655,12.9891316 71.739726,12.9452055 C72.9207663,13.0157759 74.0616419,12.5041726 74.7945205,11.5753425 L74.7945205,12.6164384 C74.8319735,13.270033 74.5876154,13.9083562 74.1232877,14.369863 C72.6908276,15.3255009 70.762929,15.0081759 69.7123288,13.6438356 L67.6712329,14.9178082 C68.0759711,15.6455087 68.6922179,16.2330929 69.4383562,16.6027397 C70.2924875,17.0134308 71.230452,17.219783 72.1780822,17.2054795 C73.4532904,17.2195608 74.6934744,16.788403 75.6849315,15.9863014 C76.6998158,15.158654 77.2594797,13.8968665 77.1917808,12.5890411 L77.1917808,3.47945205 Z M72.0684932,10.7260274 C71.3575053,10.7635342 70.6598413,10.522791 70.1232877,10.0547945 C69.6169227,9.55337851 69.3436806,8.86282112 69.369863,8.15068493 C69.3411204,7.44616411 69.6153656,6.76304409 70.1232877,6.2739726 C70.6469721,5.77615361 71.3461093,5.50536105 72.0684932,5.52054795 C72.767345,5.4975103 73.4485587,5.7425512 73.9726027,6.20547945 C74.4855638,6.69212557 74.7649268,7.37556712 74.739726,8.08219178 C74.7803095,8.81956265 74.5006936,9.53857479 73.9726027,10.0547945 C73.4501452,10.5442602 72.7568512,10.809777 72.0410959,10.7945205" id="Shape" fill="#292931"></path>
                    <path d="M84.8082192,3.20547945 C85.7873216,3.16524661 86.7361085,3.54975498 87.4109589,4.26027397 C88.1420732,5.05528479 88.5179642,6.11371486 88.4520548,7.19178082 L88.4520548,13.109589 L85.9589041,13.109589 L85.9589041,7.47945205 C86.0019583,6.93904238 85.8126189,6.40590229 85.4383562,6.01369863 C85.0738008,5.65753532 84.5775789,5.46897099 84.0684932,5.49315068 C83.4942107,5.46416918 82.9352373,5.68376586 82.5342466,6.09589041 C82.1314407,6.56968221 81.9473792,7.19151151 82.0273973,7.80821918 L82.0273973,13.0273973 L79.4520548,13.0273973 L79.4520548,1 L81.9863014,1 L81.9863014,4.49315068 C82.5861218,3.57636246 83.6327045,3.05307112 84.7260274,3.12328767" id="Path" fill="#292931"></path>
                    <rect id="Rectangle" fill="#292931" x="62.5616438" y="4.12328767" width="2.54794521" height="8.90410959"></rect>
                    <path d="M28.0410959,1.67123288 C27.1849186,0.783328396 26.0005042,0.287757523 24.7671233,0.301369863 L19.1780822,0.301369863 L19.1780822,13.0273973 L21.9178082,13.0273973 L21.9178082,9.46575342 L24.8493151,9.46575342 C26.0766852,9.46921427 27.2530271,8.974953 28.109589,8.09589041 C28.9980972,7.25716655 29.4948792,6.08476097 29.4794521,4.8630137 C29.4973826,3.64874069 28.9995526,2.48381831 28.109589,1.65753425 M26.1643836,6.35616438 C25.8068587,6.72738839 25.3097406,6.93120681 24.7945205,6.91780822 L21.9178082,6.91780822 L21.9178082,2.80821918 L24.8356164,2.80821918 C25.3529155,2.79837253 25.8503483,3.00729428 26.2054795,3.38356164 C26.571694,3.77515727 26.7600399,4.3005432 26.7260274,4.83561644 C26.7490856,5.37733841 26.5626742,5.90713921 26.2054795,6.31506849" id="Shape" fill="#292931"></path>
                    <path d="M93.9726027,6.02739726 L96.1369863,6.02739726 L96.1369863,3.60273973 L93.9726027,3.60273973 L93.9726027,1 L91.4383562,1 L91.4383562,3.60273973 L89.7808219,3.60273973 L89.7808219,6.02739726 L91.4383562,6.02739726 L91.4383562,9.97260274 C91.3187298,11.0092892 91.7247659,12.0372287 92.5205479,12.7123288 C93.6358792,13.2805232 94.9121294,13.4497231 96.1369863,13.1917808 L96.1369863,10.8630137 L94.9452055,10.8630137 C94.6760404,10.8513246 94.4173214,10.7555027 94.2054795,10.5890411 C94.0286452,10.3586743 93.9454571,10.0699626 93.9726027,9.78082192 L93.9726027,6.02739726 Z" id="Path" fill="#292931"></path>
                    <polygon id="Path" fill="#FF002E" points="0 0 13.2739726 0 0 13"></polygon>
                </g>
            </g>
        </g>
    </g>
</svg>