<?xml version="1.0" encoding="UTF-8"?>
<svg width="136px" height="32px" viewBox="0 0 136 32" version="1.1" xmlns="http://www.w3.org/2000/svg" xmlns:xlink="http://www.w3.org/1999/xlink">
    <!-- Generator: sketchtool 61.2 (101010) - https://sketch.com -->
    <title>90AAEB9A-D9A3-439E-B66D-EE2E4125C826</title>
    <desc>Created with sketchtool.</desc>
    <g id="Asset-Artboard-Page" stroke="none" stroke-width="1" fill="none" fill-rule="evenodd">
        <g id="logo/postlight-logo/postlight/white" transform="translate(0.251064, 0.000000)" fill="#FFFFFF">
            <g id="Group">
                <path d="M26.3593939,25.3278781 C26.3593939,26.8553717 25.4484152,28.0750172 23.5194279,28.0750172 C21.6231215,28.0750172 20.6382023,26.8553717 20.6382023,25.3278781 L20.6382023,12.518967 C20.6382023,10.9914734 21.6231215,9.84068858 23.4826619,9.84068858 C25.268262,9.84068858 26.3593939,10.8578025 26.3593939,12.4501062 L26.3593939,25.3278781 Z M40.3789492,6.47684035 C42.5661152,6.47684035 44.3370089,7.23876438 45.2116302,8.15987829 C46.3411622,9.34995421 46.8060473,10.4727896 47.1001749,12.8302579 L43.5669663,12.8302579 C43.1208727,10.8332959 41.9876641,9.80524534 40.4426769,9.80524534 C38.6619789,9.80524534 37.7007534,10.9851947 37.7007534,12.530106 C37.7007534,13.5010427 38.0467619,14.3419541 39.3343875,15.4283338 L43.6286514,18.8450426 C45.8615707,20.793397 47.1001749,22.5169413 47.1001749,25.6573969 C47.1001749,28.9667639 44.5751706,31.617093 40.5501152,31.617093 C37.2705917,31.617093 34.1160724,30.081093 33.7161405,25.3535994 L37.168464,25.3535994 C37.4152044,26.6465614 38.3944045,28.1829665 40.1183194,28.1829665 C41.9280216,28.1829665 43.1127025,27.0046374 43.2176897,25.3888399 C43.3108301,23.9520805 42.7021493,23.0755235 41.0607535,21.7351691 L36.7664895,18.3184603 C35.3081065,17.2312705 33.8182682,15.6158781 33.8182682,12.3036757 C33.8182682,9.2308656 36.2521746,6.47684035 40.3789492,6.47684035 Z M23.5153436,6.42884035 C27.1563991,6.42884035 30.0376248,8.31319474 30.0376248,12.4541567 L30.0376248,12.4541567 L30.0376248,25.2225615 C30.0376248,29.4651943 27.1563991,31.5520804 23.4826628,31.5520804 C19.6046711,31.5520804 16.9603816,29.5340551 16.9603816,25.3238273 L16.9603816,25.3238273 L16.9603816,12.661144 C16.9603816,8.58458714 19.7762456,6.42884035 23.5153436,6.42884035 Z M95.3892347,6.54687578 C98.9244857,6.54687578 101.955226,8.55477456 101.955226,11.8904708 L101.955226,14.3378633 L98.2737283,14.3378633 L98.2737283,12.2311291 C98.2737283,10.6991797 96.9677198,9.78009105 95.3892347,9.78009105 C93.5354134,9.78009105 92.5525369,10.9717873 92.5525369,12.6054076 L92.5525369,25.4378129 C92.5525369,27.1735092 93.672673,28.2286991 95.3892347,28.2286991 C98.129524,28.2286991 98.6936772,26.980699 98.6936772,24.3494078 L98.6936772,22.2912812 L95.4223241,22.2912812 L95.4223241,19.0422685 L101.955226,19.0422685 L101.944196,31.1945725 L98.6936772,31.1945725 L98.6936772,29.5739143 L98.2737283,29.5739143 C97.5616943,31.1945725 96.6993283,31.53037 94.3818475,31.53037 C91.5892688,31.53037 88.889422,29.4880409 88.889422,25.6079395 L88.889422,12.4693063 C88.889422,8.75933153 91.6129624,6.54687578 95.3892347,6.54687578 Z M85.1981641,6.88615678 L85.1981641,31.1968396 L81.353262,31.1968396 L81.353262,6.88615678 L85.1981641,6.88615678 Z M62.6394309,6.88384792 L62.6394309,10.1255694 L57.9399243,10.1255694 L57.9399243,31.1965565 L54.2616944,31.1965565 L54.2616944,10.1255694 L49.5621877,10.1255694 L49.5621877,6.88384792 L62.6394309,6.88384792 Z M70.0121088,6.88587324 L70.0121088,27.9224296 L77.36816,27.9224296 L77.36816,31.1965561 L66.3342874,31.1965561 L66.3342874,6.88587324 L70.0121088,6.88587324 Z M7.66647866,6.88372643 C11.6960278,6.88372643 13.485713,9.61101754 13.485713,14.1128909 C13.485713,14.1817517 13.485713,14.2546631 13.4816279,14.3235238 L13.4816279,14.3235238 L13.4816279,15.3001314 C13.4203513,19.8951693 11.5530491,22.792587 7.45813822,22.792587 L7.45813822,22.792587 L3.6777806,22.792587 L3.6777806,31.196435 L-4.08510634e-05,31.196435 L-4.08510634e-05,6.88372643 Z M109.605695,6.88186312 L109.605695,17.4216098 L115.326887,17.4216098 L115.326887,6.88186312 L119.005117,6.88186312 L119.005117,31.1945717 L115.326887,31.1945717 L115.326887,20.6629263 L109.605695,20.6629263 L109.605695,31.1945717 L105.927874,31.1945717 L105.927874,6.88186312 L109.605695,6.88186312 Z M135.55658,6.88603529 L135.55658,10.1439594 L130.857073,10.1439594 L130.857073,31.1946939 L127.179252,31.1946939 L127.179252,10.1439594 L122.479337,10.1439594 L122.479337,6.88603529 L135.55658,6.88603529 Z M6.53041043,10.1051949 L3.67778059,10.1051949 L3.67778059,19.5508658 L6.53041043,19.5508658 C8.35686153,19.5508658 9.4565722,18.400081 9.48925305,15.3001316 L9.48925305,15.3001316 L9.48516794,14.323524 C9.49333815,14.2830177 9.49333815,14.2425114 9.49333815,14.1979544 C9.49333815,11.341043 8.4589892,10.1051949 6.53041043,10.1051949 L6.53041043,10.1051949 Z" id="Combined-Shape"></path>
                <polygon id="Overline" points="0.000817021328 3.24180264 13.0780602 3.24180264 13.0780602 8.10126562e-05 0.000817021328 8.10126562e-05"></polygon>
            </g>
        </g>
    </g>
</svg>